<?xml version="1.0" encoding="UTF-8" standalone="no"?>
<!-- Created with Inkscape (http://www.inkscape.org/) -->

<svg
   width="63.525284mm"
   height="48.222515mm"
   viewBox="0 0 63.525284 48.222515"
   version="1.1"
   id="svg1"
   inkscape:version="1.4.2 (f4327f4, 2025-05-13)"
   sodipodi:docname="LOGOSHREG.svg"
   inkscape:export-filename="LOGO_SHREG_ACTUALIZADO\LOGO_SHREG_ACTUALIZADO\LogosActualizados.svg"
   inkscape:export-xdpi="96"
   inkscape:export-ydpi="96"
   xmlns:inkscape="http://www.inkscape.org/namespaces/inkscape"
   xmlns:sodipodi="http://sodipodi.sourceforge.net/DTD/sodipodi-0.dtd"
   xmlns="http://www.w3.org/2000/svg"
   xmlns:svg="http://www.w3.org/2000/svg">
  <sodipodi:namedview
     id="namedview1"
     pagecolor="#ffffff"
     bordercolor="#999999"
     borderopacity="1"
     inkscape:showpageshadow="2"
     inkscape:pageopacity="0"
     inkscape:pagecheckerboard="0"
     inkscape:deskcolor="#d1d1d1"
     inkscape:document-units="mm"
     inkscape:zoom="1"
     inkscape:cx="533"
     inkscape:cy="378.5"
     inkscape:window-width="1920"
     inkscape:window-height="991"
     inkscape:window-x="-9"
     inkscape:window-y="-9"
     inkscape:window-maximized="1"
     inkscape:current-layer="layer1"
     inkscape:export-bgcolor="#ffffff00">
    <inkscape:page
       x="0"
       y="0"
       width="63.525284"
       height="48.222515"
       id="page2"
       margin="0"
       bleed="0" />
  </sodipodi:namedview>
  <defs
     id="defs1" />
  <g
     inkscape:label="Capa 1"
     inkscape:groupmode="layer"
     id="layer1"
     transform="translate(-19.847014,-6.2402537)">
    <rect
       style="opacity:1;fill:#ffb500;fill-opacity:1;fill-rule:evenodd;stroke:#1bb5dd;stroke-width:0.31208;stroke-opacity:0.298039"
       id="rect26"
       width="63.213203"
       height="47.910435"
       x="20.003052"
       y="6.3962936"
       ry="0.35577056"
       inkscape:export-filename="LOGO_SHREG_ACTUALIZADO\LOGO_SHREG_ACTUALIZADO\FONDO_CLARO.png"
       inkscape:export-xdpi="418.22"
       inkscape:export-ydpi="418.22" />
    <path
       id="path77"
       style="display:inline;fill:#461aa0;fill-opacity:1;stroke-width:1.59563;stroke-dasharray:none;paint-order:fill markers stroke"
       d="m 49.826631,9.879244 c -0.340059,-4.13e-4 -0.619062,0.511013 -0.625891,1.151045 l -0.03685,3.442393 c -0.0067,0.639996 0.261096,1.156426 0.601166,1.158496 l 1.267331,0.0073 -0.01014,1.048691 c -4.765625,0.08301 -9.438379,1.363394 -13.593393,3.72539 -8.905884,5.062929 -14.465318,14.517 -14.584118,24.801003 l 27.868846,0.250258 -0.0067,0.658113 c -0.0034,0.384697 0.09071,0.725157 0.241398,0.935818 L 23.685823,46.892224 c -0.34007,-4.14e-4 -0.619084,0.511025 -0.625946,1.151093 l -0.01307,1.23047 c -0.0067,0.640068 0.261107,1.156438 0.601132,1.158496 l 55.903134,0.33951 c 0.340059,4.5e-4 0.619061,-0.510975 0.625924,-1.151044 l 0.01307,-1.23047 c 0.0067,-0.640068 -0.261106,-1.156439 -0.601131,-1.158496 L 52.443637,47.066929 c 0.155008,-0.208957 0.257152,-0.548089 0.261423,-0.932749 l 0.0067,-0.653182 27.319743,0.243269 C 80.150117,35.439971 74.80998,25.88815 66.022377,20.667039 62.069003,18.318669 57.608978,16.965743 53.020214,16.722875 l 0.01307,-1.072251 1.267343,0.0073 c 0.340047,4.51e-4 0.622476,-0.830991 0.625924,-1.150995 0.0034,-0.319906 0.03685,-3.442406 0.03685,-3.442406 0.0067,-0.64002 -0.261095,-1.156426 -0.601132,-1.158484 z"
       inkscape:label="bell"
       sodipodi:nodetypes="csccccccccccccccccccccccccczccc" />
    <text
       xml:space="preserve"
       style="font-style:italic;font-variant:normal;font-weight:bold;font-stretch:normal;font-size:17.7303px;font-family:Cambria;-inkscape-font-specification:'Cambria, Bold Italic';font-variant-ligatures:normal;font-variant-caps:normal;font-variant-numeric:normal;font-variant-east-asian:normal;text-align:start;writing-mode:lr-tb;direction:ltr;text-anchor:start;fill:#ffb500;fill-opacity:1;fill-rule:evenodd;stroke:none;stroke-width:0.722437;stroke-dasharray:none;stroke-opacity:1;paint-order:fill markers stroke"
       x="27.853537"
       y="41.67947"
       id="text96-5-8"
       transform="scale(1.0180254,0.98229377)"
       inkscape:export-filename="FONDO_CLARO.png"
       inkscape:export-xdpi="418.22"
       inkscape:export-ydpi="418.22"><tspan
         id="tspan96-9-4"
         style="font-style:italic;font-variant:normal;font-weight:bold;font-stretch:normal;font-size:17.7303px;font-family:Cambria;-inkscape-font-specification:'Cambria, Bold Italic';font-variant-ligatures:normal;font-variant-caps:normal;font-variant-numeric:normal;font-variant-east-asian:normal;fill:#ffb500;fill-opacity:1;stroke:none;stroke-width:0.722438;stroke-opacity:1"
         x="27.853537"
         y="41.67947"
         sodipodi:role="line">Shreg</tspan></text>
  </g>
</svg>
