<?xml version="1.0" encoding="UTF-8" standalone="no"?>
<!-- Created with Inkscape (http://www.inkscape.org/) -->

<svg
   width="63.525284mm"
   height="48.222507mm"
   viewBox="0 0 63.525284 48.222507"
   version="1.1"
   id="svg1"
   inkscape:version="1.4.2 (f4327f4, 2025-05-13)"
   sodipodi:docname="LOGOSHREG.svg"
   inkscape:export-filename="LOGO_SHREG_ACTUALIZADO\LOGO_SHREG_ACTUALIZADO\LogosActualizados.svg"
   inkscape:export-xdpi="96"
   inkscape:export-ydpi="96"
   xmlns:inkscape="http://www.inkscape.org/namespaces/inkscape"
   xmlns:sodipodi="http://sodipodi.sourceforge.net/DTD/sodipodi-0.dtd"
   xmlns="http://www.w3.org/2000/svg"
   xmlns:svg="http://www.w3.org/2000/svg">
  <sodipodi:namedview
     id="namedview1"
     pagecolor="#ffffff"
     bordercolor="#999999"
     borderopacity="1"
     inkscape:showpageshadow="2"
     inkscape:pageopacity="0"
     inkscape:pagecheckerboard="0"
     inkscape:deskcolor="#d1d1d1"
     inkscape:document-units="mm"
     inkscape:zoom="1"
     inkscape:cx="533"
     inkscape:cy="378.5"
     inkscape:window-width="1920"
     inkscape:window-height="991"
     inkscape:window-x="-9"
     inkscape:window-y="-9"
     inkscape:window-maximized="1"
     inkscape:current-layer="layer1"
     inkscape:export-bgcolor="#ffffff00">
    <inkscape:page
       x="0"
       y="0"
       width="63.525284"
       height="48.222507"
       id="page2"
       margin="0"
       bleed="0" />
  </sodipodi:namedview>
  <defs
     id="defs1" />
  <g
     inkscape:label="Capa 1"
     inkscape:groupmode="layer"
     id="layer1"
     transform="translate(-19.363184,-107.37426)">
    <rect
       style="opacity:1;fill:#000000;fill-opacity:1;fill-rule:evenodd;stroke:#1bb5dd;stroke-width:0.31208;stroke-opacity:0.298039"
       id="rect26-5-4"
       width="63.213203"
       height="47.910435"
       x="19.519224"
       y="107.5303"
       ry="0.35577056"
       inkscape:export-filename="LOGO_SHREG_ACTUALIZADO\FONDO_NEGRO.svg"
       inkscape:export-xdpi="418.22"
       inkscape:export-ydpi="418.22" />
    <path
       id="path77-3-9"
       style="display:inline;fill:#ffffff;fill-opacity:1;stroke-width:1.59563;stroke-dasharray:none;paint-order:fill markers stroke"
       d="m 49.342804,111.01326 c -0.340059,-4.2e-4 -0.619062,0.51101 -0.625891,1.15104 l -0.03685,3.44239 c -0.0067,0.64 0.261096,1.15643 0.601166,1.1585 l 1.267331,0.007 -0.01014,1.04869 c -4.765625,0.083 -9.438379,1.36339 -13.593393,3.72539 -8.905884,5.06293 -14.465318,14.517 -14.584118,24.801 l 27.868846,0.25026 -0.0067,0.65811 c -0.0034,0.3847 0.09071,0.72516 0.241398,0.93582 l -27.262457,-0.16553 c -0.34007,-4.1e-4 -0.619084,0.51103 -0.625946,1.1511 l -0.01307,1.23047 c -0.0067,0.64006 0.261107,1.15643 0.601132,1.15849 l 55.903133,0.33951 c 0.34006,4.5e-4 0.61906,-0.51097 0.62592,-1.15104 l 0.0131,-1.23047 c 0.007,-0.64007 -0.2611,-1.15644 -0.60113,-1.1585 L 51.95984,148.20094 c 0.155008,-0.20896 0.257152,-0.54809 0.261423,-0.93275 l 0.0067,-0.65318 27.319742,0.24327 c 0.11862,-10.2843 -5.22152,-19.83612 -14.009125,-25.05723 -3.953374,-2.34837 -8.413399,-3.7013 -13.002163,-3.94416 l 0.01307,-1.07226 1.267343,0.007 c 0.340047,4.6e-4 0.622476,-0.83099 0.625924,-1.15099 0.0034,-0.31991 0.03685,-3.44241 0.03685,-3.44241 0.0067,-0.64002 -0.261095,-1.15642 -0.601132,-1.15848 z"
       inkscape:label="bell"
       sodipodi:nodetypes="csccccccccccccccccccccccccczccc" />
    <text
       xml:space="preserve"
       style="font-style:italic;font-variant:normal;font-weight:bold;font-stretch:normal;font-size:17.7303px;font-family:Cambria;-inkscape-font-specification:'Cambria, Bold Italic';font-variant-ligatures:normal;font-variant-caps:normal;font-variant-numeric:normal;font-variant-east-asian:normal;text-align:start;writing-mode:lr-tb;direction:ltr;text-anchor:start;fill:#000000;fill-opacity:1;fill-rule:evenodd;stroke:none;stroke-width:0.722437;stroke-dasharray:none;stroke-opacity:1;paint-order:fill markers stroke"
       x="27.365843"
       y="144.97243"
       id="text96-5-7-0-8"
       transform="scale(1.0180254,0.98229377)"
       inkscape:export-filename="FONDO_NEGRO.png"
       inkscape:export-xdpi="418.22"
       inkscape:export-ydpi="418.22"><tspan
         id="tspan96-9-0-3-8"
         style="font-style:italic;font-variant:normal;font-weight:bold;font-stretch:normal;font-size:17.7303px;font-family:Cambria;-inkscape-font-specification:'Cambria, Bold Italic';font-variant-ligatures:normal;font-variant-caps:normal;font-variant-numeric:normal;font-variant-east-asian:normal;fill:#000000;fill-opacity:1;stroke:none;stroke-width:0.722438;stroke-opacity:1"
         x="27.365843"
         y="144.97243"
         sodipodi:role="line">Shreg</tspan></text>
  </g>
</svg>
