<?xml version="1.0" encoding="UTF-8" standalone="no"?>
<!-- Created with Inkscape (http://www.inkscape.org/) -->

<svg
   width="63.525276mm"
   height="48.222511mm"
   viewBox="0 0 63.525276 48.222511"
   version="1.1"
   id="svg1"
   inkscape:version="1.4.2 (f4327f4, 2025-05-13)"
   sodipodi:docname="LOGOSHREG.svg"
   inkscape:export-filename="LOGO_SHREG_ACTUALIZADO\LOGO_SHREG_ACTUALIZADO\LogosActualizados.svg"
   inkscape:export-xdpi="96"
   inkscape:export-ydpi="96"
   xmlns:inkscape="http://www.inkscape.org/namespaces/inkscape"
   xmlns:sodipodi="http://sodipodi.sourceforge.net/DTD/sodipodi-0.dtd"
   xmlns="http://www.w3.org/2000/svg"
   xmlns:svg="http://www.w3.org/2000/svg">
  <sodipodi:namedview
     id="namedview1"
     pagecolor="#ffffff"
     bordercolor="#999999"
     borderopacity="1"
     inkscape:showpageshadow="2"
     inkscape:pageopacity="0"
     inkscape:pagecheckerboard="0"
     inkscape:deskcolor="#d1d1d1"
     inkscape:document-units="mm"
     inkscape:zoom="1"
     inkscape:cx="533"
     inkscape:cy="378.5"
     inkscape:window-width="1920"
     inkscape:window-height="991"
     inkscape:window-x="-9"
     inkscape:window-y="-9"
     inkscape:window-maximized="1"
     inkscape:current-layer="layer1"
     inkscape:export-bgcolor="#ffffff00">
    <inkscape:page
       x="0"
       y="0"
       width="63.525276"
       height="48.222511"
       id="page2"
       margin="0"
       bleed="0" />
  </sodipodi:namedview>
  <defs
     id="defs1" />
  <g
     inkscape:label="Capa 1"
     inkscape:groupmode="layer"
     id="layer1"
     transform="translate(-206.43015,-21.283848)">
    <rect
       style="opacity:1;fill:#461aa0;fill-opacity:1;fill-rule:evenodd;stroke:#1bb5dd;stroke-width:0.31208;stroke-opacity:0.298039"
       id="rect26-3"
       width="63.213203"
       height="47.910435"
       x="206.58617"
       y="21.439886"
       ry="0.35577056"
       inkscape:export-filename="SIN_TEXTO_COLOR.png"
       inkscape:export-xdpi="418.22"
       inkscape:export-ydpi="418.22" />
    <path
       id="path77-0"
       style="display:inline;fill:#ffb500;fill-opacity:1;stroke-width:1.59563;stroke-dasharray:none;paint-order:fill markers stroke"
       d="m 236.40974,24.922836 c -0.34006,-4.13e-4 -0.61906,0.511013 -0.62589,1.151045 l -0.0368,3.442393 c -0.007,0.639996 0.2611,1.156426 0.60117,1.158496 l 1.26733,0.0073 -0.0101,1.048691 c -4.76563,0.08301 -9.43838,1.363394 -13.5934,3.72539 -8.90588,5.062929 -14.46531,14.517 -14.58411,24.801003 l 27.86884,0.250258 -0.007,0.658113 c -0.003,0.384697 0.0907,0.725157 0.2414,0.935818 l -27.26225,-0.165527 c -0.34007,-4.14e-4 -0.61908,0.511025 -0.62594,1.151093 l -0.0131,1.23047 c -0.007,0.640068 0.2611,1.156438 0.60113,1.158496 l 55.90313,0.33951 c 0.34006,4.5e-4 0.61906,-0.510975 0.62593,-1.151044 l 0.0131,-1.23047 c 0.007,-0.640068 -0.26111,-1.156439 -0.60113,-1.158496 l -27.1453,-0.164854 c 0.155,-0.208957 0.25715,-0.548089 0.26142,-0.932749 l 0.007,-0.653182 27.31974,0.243269 c 0.11862,-10.284296 -5.22152,-19.836117 -14.00912,-25.057228 -3.95338,-2.34837 -8.4134,-3.701296 -13.00217,-3.944164 l 0.0131,-1.072251 1.26735,0.0073 c 0.34004,4.51e-4 0.62247,-0.830991 0.62592,-1.150995 0.003,-0.319906 0.0369,-3.442406 0.0369,-3.442406 0.007,-0.64002 -0.26109,-1.156426 -0.60113,-1.158484 z"
       inkscape:label="bell"
       sodipodi:nodetypes="csccccccccccccccccccccccccczccc"
       inkscape:export-filename="LOGO_SHREG_ACTUALIZADO\TEXTO_COLOR.png"
       inkscape:export-xdpi="418.22"
       inkscape:export-ydpi="418.22" />
  </g>
</svg>
