<?xml version="1.0" encoding="UTF-8" standalone="no"?>
<!-- Created with Inkscape (http://www.inkscape.org/) -->

<svg
   width="57.345486mm"
   height="40.89254mm"
   viewBox="0 0 57.345486 40.89254"
   version="1.1"
   id="svg1"
   inkscape:version="1.4.2 (f4327f4, 2025-05-13)"
   sodipodi:docname="LOGOSHREG.svg"
   inkscape:export-filename="LOGO_SHREG_ACTUALIZADO\LOGO_SHREG_ACTUALIZADO\LogosActualizados.svg"
   inkscape:export-xdpi="96"
   inkscape:export-ydpi="96"
   xmlns:inkscape="http://www.inkscape.org/namespaces/inkscape"
   xmlns:sodipodi="http://sodipodi.sourceforge.net/DTD/sodipodi-0.dtd"
   xmlns="http://www.w3.org/2000/svg"
   xmlns:svg="http://www.w3.org/2000/svg">
  <sodipodi:namedview
     id="namedview1"
     pagecolor="#ffffff"
     bordercolor="#999999"
     borderopacity="1"
     inkscape:showpageshadow="2"
     inkscape:pageopacity="0"
     inkscape:pagecheckerboard="0"
     inkscape:deskcolor="#d1d1d1"
     inkscape:document-units="mm"
     inkscape:zoom="1"
     inkscape:cx="533"
     inkscape:cy="378.5"
     inkscape:window-width="1920"
     inkscape:window-height="991"
     inkscape:window-x="-9"
     inkscape:window-y="-9"
     inkscape:window-maximized="1"
     inkscape:current-layer="layer1"
     inkscape:export-bgcolor="#ffffff00">
    <inkscape:page
       x="0"
       y="-5.9202041e-13"
       width="57.345486"
       height="40.892544"
       id="page2"
       margin="0"
       bleed="0" />
  </sodipodi:namedview>
  <defs
     id="defs1" />
  <g
     inkscape:label="Capa 1"
     inkscape:groupmode="layer"
     id="layer1"
     transform="translate(-209.06235,-81.850254)">
    <rect
       style="opacity:1;fill:#ffffff;fill-opacity:1;fill-rule:evenodd;stroke:none;stroke-width:0.31208;stroke-opacity:0.298039"
       id="rect26-1-7"
       width="63.213203"
       height="47.910435"
       x="206.22066"
       y="78.367294"
       ry="0.35577056"
       inkscape:export-filename="SIN_TEXTO_NEGRO.png"
       inkscape:export-xdpi="420.94"
       inkscape:export-ydpi="420.94" />
    <path
       id="path77-4-2"
       style="display:inline;fill:#000000;fill-opacity:1;stroke-width:1.59563;stroke-dasharray:none;paint-order:fill markers stroke"
       d="m 236.04424,81.850258 c -0.34006,-4.1e-4 -0.61906,0.51101 -0.62589,1.15105 l -0.0369,3.44239 c -0.007,0.64 0.26109,1.15643 0.60116,1.1585 l 1.26734,0.007 -0.0101,1.04869 c -4.76563,0.083 -9.43838,1.36339 -13.5934,3.72539 -8.90588,5.06293 -14.46531,14.517002 -14.58411,24.801002 l 27.86884,0.25026 -0.007,0.65811 c -0.003,0.3847 0.0907,0.72516 0.2414,0.93582 l -27.26215,-0.16523 c -0.34007,-4.1e-4 -0.61908,0.51103 -0.62594,1.15109 l -0.0131,1.23047 c -0.007,0.64007 0.2611,1.15644 0.60113,1.1585 l 55.90313,0.33951 c 0.34006,4.5e-4 0.61906,-0.51097 0.62593,-1.15104 l 0.0131,-1.23047 c 0.007,-0.64007 -0.26111,-1.15644 -0.60114,-1.1585 l -27.14529,-0.16485 c 0.155,-0.20896 0.25715,-0.54809 0.26142,-0.93275 l 0.007,-0.65318 27.31974,0.24326 c 0.11862,-10.28429 -5.22152,-19.836112 -14.00912,-25.057222 -3.95338,-2.34837 -8.4134,-3.7013 -13.00217,-3.94417 l 0.0131,-1.07225 1.26735,0.007 c 0.34004,4.5e-4 0.62247,-0.83099 0.62592,-1.15099 0.003,-0.31991 0.0369,-3.44241 0.0369,-3.44241 0.007,-0.64002 -0.2611,-1.15643 -0.60113,-1.15848 z"
       inkscape:label="bell"
       sodipodi:nodetypes="csccccccccccccccccccccccccczccc"
       inkscape:export-filename="LOGO_SHREG_ACTUALIZADO\SIN_TEXTO_NEGRO.png"
       inkscape:export-xdpi="420.94"
       inkscape:export-ydpi="420.94" />
  </g>
</svg>
