<?xml version="1.0" encoding="UTF-8" standalone="no"?>
<!-- Created with Inkscape (http://www.inkscape.org/) -->

<svg
   width="63.525295mm"
   height="48.222519mm"
   viewBox="0 0 63.525295 48.222519"
   version="1.1"
   id="svg1"
   inkscape:version="1.4.2 (f4327f4, 2025-05-13)"
   sodipodi:docname="LOGOSHREG.svg"
   inkscape:export-filename="LOGO_SHREG_ACTUALIZADO\LOGO_SHREG_ACTUALIZADO\LogosActualizados.svg"
   inkscape:export-xdpi="96"
   inkscape:export-ydpi="96"
   xmlns:inkscape="http://www.inkscape.org/namespaces/inkscape"
   xmlns:sodipodi="http://sodipodi.sourceforge.net/DTD/sodipodi-0.dtd"
   xmlns="http://www.w3.org/2000/svg"
   xmlns:svg="http://www.w3.org/2000/svg">
  <sodipodi:namedview
     id="namedview1"
     pagecolor="#ffffff"
     bordercolor="#999999"
     borderopacity="1"
     inkscape:showpageshadow="2"
     inkscape:pageopacity="0"
     inkscape:pagecheckerboard="0"
     inkscape:deskcolor="#d1d1d1"
     inkscape:document-units="mm"
     inkscape:zoom="1"
     inkscape:cx="533"
     inkscape:cy="378.5"
     inkscape:window-width="1920"
     inkscape:window-height="991"
     inkscape:window-x="-9"
     inkscape:window-y="-9"
     inkscape:window-maximized="1"
     inkscape:current-layer="layer1"
     inkscape:export-bgcolor="#ffffff00">
    <inkscape:page
       x="7.5814311e-15"
       y="-7.6498454e-13"
       width="63.525291"
       height="48.222523"
       id="page2"
       margin="0"
       bleed="0" />
  </sodipodi:namedview>
  <defs
     id="defs1" />
  <g
     inkscape:label="Capa 1"
     inkscape:groupmode="layer"
     id="layer1"
     transform="translate(-206.1978,-136.85856)">
    <rect
       style="fill:#000000;fill-opacity:1;fill-rule:evenodd;stroke:#1bb5dd;stroke-width:0.31208;stroke-opacity:0.298039"
       id="rect26-5-4-3"
       width="63.213203"
       height="47.910435"
       x="206.35384"
       y="137.01462"
       ry="0.35577056"
       inkscape:export-filename="SIN_TEXTO_BLANCO.png"
       inkscape:export-xdpi="418.22"
       inkscape:export-ydpi="418.22" />
    <path
       id="path77-3-9-0"
       style="display:inline;fill:#ffffff;fill-opacity:1;stroke-width:1.59563;stroke-dasharray:none;paint-order:fill markers stroke"
       d="m 236.17741,140.49759 c -0.34006,-4.2e-4 -0.61906,0.51101 -0.62589,1.15104 l -0.0369,3.44239 c -0.007,0.64 0.2611,1.15643 0.60117,1.1585 l 1.26733,0.007 -0.0101,1.04869 c -4.76563,0.083 -9.43838,1.36339 -13.59339,3.72539 -8.90589,5.06293 -14.46532,14.517 -14.58412,24.801 l 27.86884,0.25026 -0.007,0.65811 c -0.003,0.3847 0.0907,0.72516 0.2414,0.93582 l -27.26245,-0.16553 c -0.34007,-4.1e-4 -0.61909,0.51103 -0.62595,1.1511 l -0.0131,1.23047 c -0.007,0.64006 0.26111,1.15643 0.60113,1.15849 l 55.90313,0.33951 c 0.34006,4.5e-4 0.61906,-0.51097 0.62592,-1.15104 l 0.0131,-1.23047 c 0.007,-0.64007 -0.2611,-1.15644 -0.60113,-1.1585 l -27.14529,-0.16455 c 0.15501,-0.20896 0.25715,-0.54809 0.26142,-0.93275 l 0.007,-0.65318 27.31975,0.24327 c 0.11861,-10.2843 -5.22153,-19.83612 -14.00913,-25.05723 -3.95337,-2.34837 -8.4134,-3.7013 -13.00216,-3.94416 l 0.0131,-1.07226 1.26734,0.007 c 0.34005,4.6e-4 0.62248,-0.83099 0.62592,-1.15099 0.003,-0.31991 0.0368,-3.44241 0.0368,-3.44241 0.007,-0.64002 -0.26109,-1.15642 -0.60113,-1.15848 z"
       inkscape:label="bell"
       sodipodi:nodetypes="csccccccccccccccccccccccccczccc"
       inkscape:export-filename="LOGO_SHREG_ACTUALIZADO\SIN_TEXTO_BLANCO.png"
       inkscape:export-xdpi="418.22"
       inkscape:export-ydpi="418.22" />
  </g>
</svg>
